HIERARCHY
ROOT pelvis
{
  OFFSET 0 100 0
  CHANNELS 6 Xposition Yposition Zposition Zrotation Xrotation Yrotation
  JOINT pelvis_right_femur
  {
    OFFSET -10.78128 -3.44521 -0.5502486
    CHANNELS 3 Zrotation Xrotation Yrotation
    JOINT right_femur_tibia
    {
      OFFSET -0.8047443 -44.0398 -0.1307829
      CHANNELS 3 Zrotation Xrotation Yrotation
      JOINT right_tibia_foot
      {
        OFFSET 3.006224 -47.83518 -5
        CHANNELS 3 Zrotation Xrotation Yrotation
        End Site
        {
          OFFSET 0 -5 15
        }
      }
    }
  }
  JOINT pelvis_left_femur
  {
    OFFSET 10.78128 -3.44521 -0.5502486
    CHANNELS 3 Zrotation Xrotation Yrotation
    JOINT left_femur_tibia
    {
      OFFSET 0.8047443 -44.0398 -0.1307829
      CHANNELS 3 Zrotation Xrotation Yrotation
      JOINT left_tibia_foot
      {
        OFFSET -4.370144 -48.10324 -4.275266
        CHANNELS 3 Zrotation Xrotation Yrotation
        End Site
        {
          OFFSET 0 -5 15
        }
      }
    }
  }
  JOINT pelvis_spine1
  {
    OFFSET 0 6.468898 -3.129235
    CHANNELS 3 Zrotation Xrotation Yrotation
    JOINT spine1
    {
      OFFSET 0 23.15396 4.99043
      CHANNELS 3 Zrotation Xrotation Yrotation
      JOINT spine2
      {
        OFFSET 0 20.79997 -5.064912
        CHANNELS 3 Zrotation Xrotation Yrotation
        JOINT neck
        {
          OFFSET 0 14.38658 9.616178
          CHANNELS 3 Zrotation Xrotation Yrotation
          End Site
          {
            OFFSET 0 20 0
          }
        }
      }
      JOINT right_manubrium
      {
        OFFSET -5.722621 16.35077 3.967754
        CHANNELS 3 Zrotation Xrotation Yrotation
        JOINT right_clavicle
        {
          OFFSET -13.16364 1.694482 -4.693211
          CHANNELS 3 Zrotation Xrotation Yrotation
          JOINT right_humerus
          {
            OFFSET -28.5034 -0.3100689 -2.792744
            CHANNELS 3 Zrotation Xrotation Yrotation
            JOINT right_radius
            {
              OFFSET -25.15693 0.02248979 -1.271978
              CHANNELS 3 Zrotation Xrotation Yrotation
              End Site
              {
                OFFSET -15 0 0
              }
            }
          }
        }
      }
      JOINT left_manubrium
      {
        OFFSET 5.722621 16.35077 3.967754
        CHANNELS 3 Zrotation Xrotation Yrotation
        JOINT left_clavicle
        {
          OFFSET 13.16364 1.694482 -4.693211
          CHANNELS 3 Zrotation Xrotation Yrotation
          JOINT left_humerus
          {
            OFFSET 29.39168 -1.063119 -2.237045
            CHANNELS 3 Zrotation Xrotation Yrotation
            JOINT left_radius
            {
              OFFSET 24.59957 -0.9528479 0.9047498
              CHANNELS 3 Zrotation Xrotation Yrotation
              End Site
              {
                OFFSET 15 -0 -0
              }
            }
          }
        }
      }
    }
  }
}
MOTION
Frames: 9
Frame Time: 0.0416666666667
0 103.5113 0 2.207862 -1.139713 0.2726786 1.205929 -10.10847 8.637292 -0 33.77788 -0 -5.226907 -17.81307 -2.202198 -8.071066 10.09705 -23.45252 -0 5.184651 -0 7.64216 -16.20343 26.51493 -4.369473 -5.056834 4.988458 2.040429 9.213685 -7.724609 0.8403361 22.77966 7.177051 3.263536 -23.10871 8.805798 6.355853 -19.72039 11.5762 86.3303 35.95222 -19.84163 -0 0 16.19221 -7.580471 8.251752 4.610211 5.553614 -19.50277 -1.6873 -94.75174 29.73769 22.83569 0 0 -16.14456 3.534393 17.87841 9.512519
0.3629031 103.3723 1.445989 2.12155 -0.9116262 0.4545794 1.373567 -11.06949 8.344862 -0 32.03265 -0 -5.190392 -17.1375 -1.916595 -8.01737 10.24829 -23.22653 -0 5.345196 -0 7.427574 -16.55866 26.21005 -4.369917 -4.887675 5.001944 2.159235 9.183977 -7.703643 0.8717262 22.62145 7.196902 3.310154 -23.24491 8.827235 6.302496 -19.58339 11.57279 86.36398 35.94196 -19.99604 -0 0 15.9646 -7.625243 8.302065 4.617447 5.728118 -19.59109 -1.674386 -94.59245 29.68306 22.50804 0 0 -16.70807 3.645278 17.74684 9.397201
0.7605882 103.1454 3.069166 2.020499 -0.5799088 0.5920149 1.558093 -12.33024 7.899751 -0 29.23477 -0 -5.134514 -16.14909 -1.43789 -7.969623 10.46043 -22.87689 -0 5.634718 -0 7.095466 -17.04185 25.73544 -4.383155 -4.671668 5.036308 2.326783 9.140702 -7.664095 0.9158339 22.39962 7.220312 3.376404 -23.42294 8.848461 6.21721 -19.3741 11.56255 86.42855 35.92716 -20.23515 -0 0 15.61644 -7.68957 8.378339 4.626343 5.984636 -19.72158 -1.656549 -94.36104 29.60608 22.02165 0 0 -17.51684 3.79298 17.56393 9.230897
1.199936 102.8138 4.930674 1.916421 -0.1599863 0.6975016 1.72819 -13.72127 7.3255 -0 25.51545 -0 -5.080799 -14.92269 -0.7881925 -7.9342 10.72492 -22.39835 -0 6.127609 -0 6.623533 -17.58223 25.07006 -4.397122 -4.440086 5.081084 2.523194 9.086428 -7.61504 0.9630419 22.13904 7.247386 3.454768 -23.61774 8.863122 6.102212 -19.09886 11.53829 86.53904 35.909 -20.55456 -0 0 15.15369 -7.772806 8.482584 4.640367 6.292317 -19.88817 -1.636833 -94.06862 29.50968 21.4118 0 0 -18.48406 3.955124 17.3354 9.037978
1.680003 102.3839 7.092283 1.816131 0.3254728 0.8055448 1.862281 -15.01941 6.662431 -0 21.15771 -0 -5.0621 -13.5748 -0.01992783 -7.908538 11.03296 -21.78223 -0 6.946605 -0 5.973505 -18.07361 24.17897 -4.384482 -4.231929 5.112088 2.718582 9.024685 -7.57561 0.9975741 21.8761 7.280962 3.533728 -23.79638 8.864071 5.963078 -18.76813 11.48912 86.71744 35.8896 -20.94573 -0 0 14.58588 -7.87565 8.618908 4.666664 6.599716 -20.08151 -1.620426 -93.72931 29.39739 20.73513 0 0 -19.47542 4.100541 17.06413 8.857977
2.193588 101.8839 9.613366 1.720421 0.8490432 0.9647252 1.953209 -16.01773 5.955122 -0 16.48789 -0 -5.106731 -12.22471 0.8088052 -7.885815 11.36216 -21.0262 -0 8.216704 -0 5.11472 -18.40096 23.03878 -4.316918 -4.079019 5.108302 2.886073 8.959965 -7.562481 1.004943 21.64337 7.323004 3.601963 -23.92971 8.84441 5.807559 -18.39454 11.40873 86.9788 35.87073 -21.3944 -0 0 13.92771 -8.000429 8.790672 4.713113 6.856294 -20.28864 -1.613337 -93.36092 29.27181 20.05241 0 0 -20.36231 4.201488 16.75289 8.727857
2.731769 101.3599 12.54265 1.621172 1.37135 1.214588 2.011524 -16.54356 5.253042 -0 11.85782 -0 -5.233749 -10.98411 1.640951 -7.853706 11.64526 -20.14259 -0 10.07601 -0 4.035717 -18.42892 21.65502 -4.170335 -3.995724 5.06643 3.010027 8.899835 -7.57959 0.975711 21.46011 7.371315 3.649837 -23.99794 8.796152 5.646913 -17.99338 11.30478 87.3189 35.85423 -21.8741 -0 0 13.20366 -8.154148 8.999469 4.78849 7.021014 -20.48653 -1.623086 -92.99302 29.13225 19.4287 0 0 -21.04529 4.239335 16.4055 8.673473
3.286542 100.8779 15.90915 1.501835 1.829618 1.558633 2.064344 -16.39758 4.622102 -0 7.715411 -0 -5.459532 -9.984108 2.409301 -7.788041 11.74293 -19.15594 -0 12.74674 -0 2.736448 -17.95563 20.05832 -3.916864 -3.983186 5.002461 3.08234 8.857506 -7.617632 0.9022262 21.33691 7.418821 3.666773 -23.98388 8.706573 5.498176 -17.58398 11.20132 87.71455 35.84418 -22.34088 -0 0 12.44986 -8.352599 9.247342 4.906049 7.050664 -20.63477 -1.661182 -92.67521 28.97436 18.95006 0 0 -21.42747 4.198218 16.02545 8.717474
3.851271 100.5235 19.71868 1.350618 2.152438 1.954712 2.140297 -15.38854 4.126572 -0 4.493317 -0 -5.791036 -9.351648 3.050371 -7.659407 11.48464 -18.09583 -0 16.45535 -0 1.246445 -16.77781 18.31263 -3.535174 -4.033593 4.944042 3.099074 8.848313 -7.659132 0.7795643 21.27997 7.455962 3.643551 -23.8728 8.561912 5.378854 -17.18813 11.12814 88.13138 35.84611 -22.74214 -0 0 11.70826 -8.616239 9.53569 5.080962 6.908456 -20.68959 -1.738434 -92.46028 28.79314 18.70219 0 0 -21.42857 4.066568 15.6161 8.876422
